# xmcd
#
# Track frame offsets:
#	150
#	11478
#	23017
#	34874
#	48457
#	58203
#	69910
#	82632
#	98330
#	111021
#	122445
#	137723
#	150421
#	168464
#	183758
#	195649
#	205992
#	221342
#	235701
#	253582
#
# Disc length: 3565 seconds
#
# Revision: 2
# Processed by: cddbd v1.5.1PL0 Copyright (c) Steve Scherf et al.
# Submitted via: audiograbber 1.83.01
#
DISCID=f50deb14
DTITLE=Cristy Lane - Greatest Country Hits
DYEAR=2005
DGENRE=Country
TTITLE0=Tryin' To Forget About You
TTITLE1=Sweet Deceiver
TTITLE2=Let Me Down Easy
TTITLE3=Shake Me I Rattle (Squeeze Me I Cry)
TTITLE4=I'm Gonna Love You Anyway
TTITLE5=Penny Arcade
TTITLE6=I Just Can't Stay Married To You
TTITLE7=Simple Little Words
TTITLE8=Slippin' Up, Slippin' Around
TTITLE9=Come To My Love
TTITLE10=One Day At A Time
TTITLE11=Sweet Sexy Eyes
TTITLE12=I Have A Dream
TTITLE13=Love To Love You
TTITLE14=Cheatin' Is Still On My Mind
TTITLE15=Lies On Your Lips
TTITLE16=Fragile--Handle With Care
TTITLE17=The Good Old Days
TTITLE18=I've Come Back (To Say I Love You One More Time)
TTITLE19=Footprints In The Sand
EXTD=
EXTT0=
EXTT1=
EXTT2=
EXTT3=
EXTT4=
EXTT5=
EXTT6=
EXTT7=
EXTT8=
EXTT9=
EXTT10=
EXTT11=
EXTT12=
EXTT13=
EXTT14=
EXTT15=
EXTT16=
EXTT17=
EXTT18=
EXTT19=
PLAYORDER=
